<?xml version="1.0" encoding="utf-8"?>
<!-- Generator: Adobe Illustrator 24.1.2, SVG Export Plug-In . SVG Version: 6.00 Build 0)  -->
<svg version="1.1" id="Layer_1" xmlns="http://www.w3.org/2000/svg" xmlns:xlink="http://www.w3.org/1999/xlink" x="0px" y="0px"
	 viewBox="0 0 16 16" style="enable-background:new 0 0 16 16;" xml:space="preserve">
<style type="text/css">
	.st0{display:none;}
	.st1{display:none;fill:#FFFFFF;}
	.st2{fill:#020203;}
</style>
<path class="st0" d="M-184,19.8c0-8,0-16,0-24c0.2-1.1,0.5-2.2,0.7-3.3c2.2-12.2,3.4-24.8,6.7-36.7
	c33.6-120.4,172.1-176.7,280.9-113.7c51.2,29.7,82,74.7,92.9,133c1.3,6.8,1.9,13.8,2.9,20.7c0,7.7,0,15.5,0,23.2
	c-0.2,1.2-0.5,2.4-0.6,3.6c-1,7.5-1.7,15.1-3.1,22.6c-14.9,77.2-77.5,138.1-155.2,151.3c-7,1.2-14,2-21.1,2.9c-8,0-16,0-24,0
	c-0.8-0.2-1.6-0.6-2.5-0.6c-16.3-1.2-32.2-4.1-47.5-9.8c-69.7-25.8-112-75.2-127-147.9C-182.4,34.2-183,26.9-184,19.8z M-87.8,65.4
	c20.9,0,41.4,0.4,61.8-0.2c6.5-0.2,13.4-2.3,19.3-5.1C6,54.2,11.4,43.4,10.9,29.7C10.3,16.5,4.3,6.9-8.6,2.3C-9,2.1-9.4,1.8-10,1.5
	C-8.6,0.6-7.3-0.2-6.1-1C4.1-7.6,6.6-17.3,5-28.7C3.6-39-2.1-46-11.9-49c-6-1.8-12.5-2.8-18.7-2.9C-48.8-52.3-66.9-52.1-85-52
	c-0.9,0-1.9,0.2-2.8,0.3C-87.8-12.6-87.8,26.2-87.8,65.4z M104.2,28.6c-0.3-5-0.3-9.5-1-13.9C100.6-1.3,93-14,76.9-19.6
	C52.5-28.1,23.1-15.2,19.2,16c-3.5,28,10.9,47.9,37.5,51.3c10.7,1.4,21.2-0.1,30.5-6.4c7.7-5.2,12.3-12.6,15-21.8
	c-6.5,0-12.5,0-18.5,0.1c-0.8,0-2,0.5-2.4,1.1c-5.6,9.1-14.2,10.8-23.8,9.3c-9.9-1.5-16.4-10.9-14.7-21
	C62.9,28.6,83.1,28.6,104.2,28.6z M37.5-34.5c16,0,31.8,0,47.5,0c0-3.9,0-7.6,0-11.3c-16,0-31.6,0-47.5,0
	C37.5-42,37.5-38.4,37.5-34.5z"/>
<path class="st1" d="M200-4.1c-0.9-6.9-1.6-13.8-2.9-20.7c-10.8-58.3-41.6-103.3-92.9-133c-108.7-63-247.3-6.7-280.9,113.7
	c-3.3,11.9-4.5,24.4-6.7,36.7c-0.2,1.1-0.4,2.2-0.7,3.3c0-60.1,0-120.2,0-180.4c128,0,256,0,384,0C200-124.4,200-64.3,200-4.1z"/>
<path class="st1" d="M20,199.5c7-1,14.1-1.8,21.1-2.9c77.7-13.2,140.2-74.1,155.2-151.3c1.4-7.4,2.1-15,3.1-22.6
	c0.2-1.2,0.4-2.4,0.6-3.6c0,60.1,0,120.3,0,180.4C140,199.5,80,199.5,20,199.5z"/>
<path class="st1" d="M-184,19.8c1,7.1,1.6,14.4,3,21.4c14.9,72.7,57.2,122.1,127,147.9c15.3,5.7,31.2,8.6,47.5,9.8
	c0.8,0.1,1.7,0.4,2.5,0.6c-60,0-120,0-180,0C-184,139.6-184,79.7-184,19.8z"/>
<path class="st2" d="M0,12.8C0,9.5,0,6.3,0,3c0.1,0,0.2,0,0.2,0c1.5,0,3,0,4.5,0c0.5,0,1.1,0.1,1.6,0.2C7.1,3.5,7.6,4.1,7.7,5
	c0.1,0.9-0.1,1.8-0.9,2.3C6.7,7.3,6.6,7.4,6.5,7.5c0.1,0,0.1,0.1,0.1,0.1c1.1,0.4,1.6,1.2,1.6,2.3c0,1.1-0.4,2-1.5,2.5
	c-0.5,0.2-1.1,0.4-1.6,0.4C3.4,12.8,1.7,12.8,0,12.8z M2.2,11.1c0.9,0,1.8,0,2.7,0c0.8,0,1.2-0.5,1.2-1.3c0-0.8-0.5-1.3-1.4-1.3
	c-0.8,0-1.5,0-2.3,0c0,0-0.1,0-0.1,0C2.2,9.4,2.2,10.2,2.2,11.1z M2.2,6.9c0.9,0,1.7,0,2.5,0c0.5,0,0.8-0.3,0.9-0.8
	c0.2-0.8-0.2-1.4-1.2-1.5c-0.7,0-1.4,0-2.1,0c-0.1,0-0.1,0-0.2,0C2.2,5.5,2.2,6.2,2.2,6.9z"/>
<path class="st2" d="M16,9.7c-1.8,0-3.4,0-5.1,0c-0.1,0.8,0.4,1.6,1.2,1.8c0.8,0.1,1.5,0,2-0.8c0-0.1,0.1-0.1,0.2-0.1
	c0.5,0,1,0,1.5,0c-0.2,0.8-0.6,1.4-1.3,1.8C13.8,13,12.9,13.1,12,13C9.8,12.7,8.6,11,8.9,8.7c0.3-2.6,2.8-3.7,4.8-3
	c1.3,0.5,2,1.5,2.2,2.9C16,8.9,16,9.3,16,9.7z M14,8.5c0-1-0.6-1.5-1.6-1.5c-0.9,0-1.5,0.7-1.5,1.5C11.9,8.5,12.9,8.5,14,8.5z"/>
<path class="st2" d="M10.4,4.5c0-0.3,0-0.6,0-0.9c1.3,0,2.6,0,4,0c0,0.3,0,0.6,0,0.9C13.1,4.5,11.8,4.5,10.4,4.5z"/>
<path class="st0" d="M-61.8,45.2c0-10.7,0-21.1,0-31.7c0.6-0.1,1.2-0.4,1.8-0.4c9.2,0,18.5-0.2,27.7,0c11.1,0.2,17,5.8,17.2,16
	c0.2,9.5-4.8,15.5-14.4,16C-40.2,45.6-50.8,45.2-61.8,45.2z"/>
<path class="st0" d="M-61.8-4.9c0-9,0-17.7,0-26.7c0.8-0.1,1.7-0.3,2.5-0.3c8.4,0,16.8-0.2,25.1,0.1c11.1,0.4,16.5,7.5,13.8,17.7
	c-1.4,5.1-5.3,8.9-11.1,9.1C-41.5-4.6-51.4-4.9-61.8-4.9z"/>
<path class="st0" d="M80,13.7c-12.4,0-24.9,0-37.3,0c-0.6-9.8,7.3-17.6,18-17.9C72.6-4.6,80,2.2,80,13.7z"/>
</svg>
